<?xml version="1.0" standalone="no"?><!DOCTYPE svg PUBLIC "-//W3C//DTD SVG 1.1//EN" "http://www.w3.org/Graphics/SVG/1.1/DTD/svg11.dtd"><svg t="1533101128440" class="icon" style="" viewBox="0 0 1024 1024" version="1.1" xmlns="http://www.w3.org/2000/svg" p-id="1608" xmlns:xlink="http://www.w3.org/1999/xlink" width="200" height="200"><defs><style type="text/css"></style></defs><path d="M445.12 888.512l33.024-33.088 526.144-526.08a58.432 58.432 0 0 0 0-82.56L777.28 19.84a58.304 58.304 0 0 0-82.496 0L168.576 545.92l-32.96 33.088-24.256 24.192a57.664 57.664 0 0 0-15.872 29.44L3.904 974.656a36.48 36.48 0 0 0 9.792 35.584c8.96 9.152 22.4 13.376 35.584 9.792l342.784-91.584a61.376 61.376 0 0 0 11.008-3.584 56.512 56.512 0 0 0 17.728-12.16l24.32-24.192zM736 81.728l206.336 206.336-515.776 515.84L220.16 597.504l515.84-515.776zM90.432 933.568l27.648-100.608 72.96 73.024-100.608 27.584z m152.384-41.856l-110.528-110.528 36.288-132.032 18.56-18.56 206.336 206.336-18.624 18.624-132.032 36.16z" p-id="1609"></path></svg>