<?xml version="1.0" standalone="no"?><!DOCTYPE svg PUBLIC "-//W3C//DTD SVG 1.1//EN" "http://www.w3.org/Graphics/SVG/1.1/DTD/svg11.dtd"><svg t="1528884076728" class="icon" style="" viewBox="0 0 1109 1024" version="1.1" xmlns="http://www.w3.org/2000/svg" p-id="32791" xmlns:xlink="http://www.w3.org/1999/xlink" width="216.6015625" height="200"><defs><style type="text/css"></style></defs><path d="M283.669 32.04c-116.925 0-211.711 94.786-211.711 211.711s94.786 211.711 211.711 211.711H495.42V243.711c0-116.902-94.768-211.672-211.672-211.672h-0.084z m748.289 211.671C1031.958 126.786 937.172 32 820.247 32s-211.711 94.786-211.711 211.711v211.751h211.751c116.902 0 211.672-94.768 211.672-211.672v-0.084zM820.287 991.2c116.925 0 211.711-94.786 211.711-211.711s-94.786-211.711-211.711-211.711H608.536V779.53c0 116.902 94.768 211.672 211.672 211.672h0.084zM71.998 779.449c0 116.925 94.786 211.711 211.711 211.711S495.42 896.374 495.42 779.449V567.777H283.669c-116.903 0-211.672 94.768-211.672 211.672z" p-id="32792"></path></svg>