<?xml version="1.0" standalone="no"?><!DOCTYPE svg PUBLIC "-//W3C//DTD SVG 1.1//EN" "http://www.w3.org/Graphics/SVG/1.1/DTD/svg11.dtd"><svg t="1528710085935" class="icon" style="" viewBox="0 0 1024 1024" version="1.1" xmlns="http://www.w3.org/2000/svg" p-id="28527" xmlns:xlink="http://www.w3.org/1999/xlink" width="200" height="200"><defs><style type="text/css"></style></defs><path d="M985.6 854.528c-41.472-35.328-89.6-57.856-140.8-76.8-45.056-15.872-89.6-32.256-131.072-51.2-45.056-19.456-54.272-60.928-32.256-105.472 6.656-12.8 15.872-25.6 28.672-35.328 35.328-28.672 54.272-64 67.072-105.472 6.656-25.6 19.456-44.544 41.472-60.928 38.4-25.6 45.056-64 41.472-105.472 0-15.872-6.656-28.672-22.528-32.256-25.6-6.656-25.6-25.6-28.672-41.472-3.072-12.8-3.072-22.528-6.656-35.328-19.456-112.128-115.2-198.656-230.4-201.728C448 0 345.6 79.872 323.072 198.656L313.856 256c3.072 6.656 0 15.872-12.8 19.456-22.528 6.144-28.672 25.6-32.256 44.544-3.072 44.544 19.456 83.456 64 95.744 109.056 35.328 160.256 115.2 173.056 227.328 9.728 108.544 3.072 214.528 6.656 323.072 3.072 38.4 15.872 54.272 54.272 54.272h358.4c41.472 0 83.456-25.6 92.672-54.272 15.872-37.888 3.072-82.944-32.256-111.616z" p-id="28528"></path><path d="M380.928 732.672c-12.8 0-19.456-3.072-19.456-19.456V640c-6.656-79.872-51.2-131.072-118.272-137.728-86.528-6.656-143.872 32.256-163.328 115.2-6.656 28.672-6.656 57.856-3.072 86.528 3.072 25.6-6.656 32.256-28.672 28.672-38.4 0-48.128 9.728-48.128 45.056v201.728c0 35.328 6.656 41.472 41.472 41.472h345.6c41.472 0 48.128-6.656 48.128-48.128v-188.928c0-44.544-3.072-51.2-54.272-51.2z m-76.8-3.072c-28.672 9.728-60.928 0-83.456 3.072h-28.672c-67.072 0-67.072 0-67.072-67.072 0-28.672 6.144-54.272 22.528-76.8 35.328-48.128 115.2-38.4 140.8 15.872 22.016 38.4 15.872 80.384 15.872 124.928z" p-id="28529"></path></svg>