<?xml version="1.0" standalone="no"?><!DOCTYPE svg PUBLIC "-//W3C//DTD SVG 1.1//EN" "http://www.w3.org/Graphics/SVG/1.1/DTD/svg11.dtd"><svg t="1532079520419" class="icon" style="" viewBox="0 0 1368 1024" version="1.1" xmlns="http://www.w3.org/2000/svg" p-id="10989" xmlns:xlink="http://www.w3.org/1999/xlink" width="267.1875" height="200"><defs><style type="text/css"></style></defs><path d="M1367.04 817.493333c0 22.801067-3.8912 44.2368-11.605333 64.238933-7.714133 20.0704-18.432 38.2976-32.1536 54.6816-13.653333 16.384-29.832533 29.832533-48.5376 40.3456-18.705067 10.513067-38.980267 17.544533-60.8256 21.162667l0 2.730667-28.672 0-1.365333 0L296.618667 1000.6528c-1.8432 0-2.935467 0.2048-3.413333 0.682667-0.477867 0.477867-1.570133 0.682667-3.413333 0.682667-1.8432 0-3.208533-0.2048-4.096-0.682667-0.887467-0.477867-2.2528-0.682667-4.096-0.682667l-8.192 0 0-1.365333c-38.2976-1.8432-74.069333-10.513067-107.3152-25.941333-33.245867-15.496533-62.190933-36.2496-86.8352-62.190933-24.576-25.941333-43.963733-56.046933-58.094933-90.248533C7.031467 786.705067 0 750.455467 0 712.226133c0-38.2976 7.031467-74.274133 21.162667-107.997867 14.1312-33.723733 33.245867-63.351467 57.412267-88.8832 24.1664-25.531733 52.4288-46.4896 84.7872-62.8736 32.3584-16.384 67.242667-25.941333 104.584533-28.740267C274.295467 364.544 290.747733 309.179733 317.166933 257.706667 343.586133 206.165333 377.514667 161.314133 418.952533 123.016533 460.458667 84.7872 508.040533 54.6816 561.834667 32.836267 615.6288 10.922667 673.041067 0 734.071467 0c64.7168 0 125.7472 12.288 183.159467 36.932267 57.412267 24.576 107.3152 58.299733 149.7088 101.1712 42.3936 42.8032 75.844267 92.706133 100.488533 149.7088 24.576 56.9344 36.932267 117.76 36.932267 182.4768 0 29.149867-2.730667 57.617067-8.192 85.469867-5.461333 27.784533-13.243733 54.4768-23.210667 79.940267 1.8432 0 3.8912-0.2048 6.144-0.682667 2.2528-0.477867 4.369067-0.682667 6.144-0.682667 25.531733 0 49.220267 4.778667 71.0656 14.336 21.845333 9.557333 41.028267 22.528 57.412267 38.980267 16.384 16.384 29.354667 35.771733 38.980267 58.094933C1362.261333 768 1367.04 791.9616 1367.04 817.493333L1367.04 817.493333 1367.04 817.493333zM917.2992 615.150933c10.922667-18.2272 14.1312-28.740267 9.557333-31.470933-4.573867-2.730667-15.9744-4.096-34.2016-4.096-10.922667 0-26.2144-0.2048-45.806933-0.682667-19.592533-0.477867-34.4064-0.682667-44.4416-0.682667-14.609067 0-23.893333-5.9392-28.0576-17.749333-4.096-11.8784-6.144-28.2624-6.144-49.220267 0-29.149867-0.2048-52.6336-0.682667-70.382933-0.477867-17.749333-0.682667-37.137067-0.682667-58.094933 0-23.688533-1.570133-41.028267-4.778667-51.950933-3.208533-10.922667-16.1792-16.384-38.980267-16.384-16.384 0-28.672 0.2048-36.932267 0.682667-8.192 0.477867-19.592533 0.682667-34.2016 0.682667-24.576 0-39.867733 7.031467-45.806933 21.162667-5.9392 14.1312-8.874667 28.0576-8.874667 41.710933l0 43.758933c0 11.8784 0.2048 23.210667 0.682667 34.2016 0.477867 10.922667 0.682667 22.3232 0.682667 34.2016L598.6304 530.432c0 14.609067-1.8432 25.736533-5.461333 33.518933-3.618133 7.7824-12.288 11.605333-25.941333 11.605333C561.834667 576.443733 554.325333 577.1264 544.768 577.536c-9.557333 0.477867-19.387733 0.887467-29.354667 1.365333-10.0352 0.477867-19.592533 0.682667-28.672 0.682667l-21.845333 0c-19.114667 0-30.5152 5.9392-34.2016 17.749333-3.618133 11.8784 2.2528 26.897067 17.749333 45.124267 15.496533 19.114667 32.1536 39.867733 49.902933 62.190933 17.749333 22.3232 35.293867 44.8512 52.6336 67.652267 17.339733 22.801067 33.928533 44.8512 49.902933 66.286933 15.9744 21.435733 30.788267 39.867733 44.4416 55.364267 24.576 27.306667 48.264533 26.897067 71.0656-1.365333 13.653333-15.496533 29.627733-35.566933 47.854933-60.142933 18.2272-24.576 36.932267-50.312533 56.046933-77.2096 19.114667-26.897067 37.341867-52.8384 54.6816-77.892267C892.177067 652.288 906.308267 631.534933 917.2992 615.150933L917.2992 615.150933 917.2992 615.150933zM917.2992 615.150933" p-id="10990"></path></svg>