<?xml version="1.0" standalone="no"?><!DOCTYPE svg PUBLIC "-//W3C//DTD SVG 1.1//EN" "http://www.w3.org/Graphics/SVG/1.1/DTD/svg11.dtd"><svg t="1532935363601" class="icon" style="" viewBox="0 0 1024 1024" version="1.1" xmlns="http://www.w3.org/2000/svg" p-id="13081" xmlns:xlink="http://www.w3.org/1999/xlink" width="200" height="200"><defs><style type="text/css"></style></defs><path d="M563.135634 512.002047 853.93265 230.464929c14.109346-13.677511 14.109346-35.853579 0-49.53109-14.115486-13.672394-36.999682-13.672394-51.115168 0L512.002047 462.494493 221.185588 180.933839c-14.115486-13.677511-37.003775-13.677511-51.114145 0-14.115486 13.677511-14.115486 35.853579 0 49.53109l290.790876 281.537118L170.071444 793.539164c-14.115486 13.677511-14.115486 35.848463 0 49.526997 14.110369 13.677511 36.998659 13.677511 51.114145 0l290.816458-281.556561 290.811342 281.556561c14.119579 13.677511 37.003775 13.677511 51.114145 0 14.114462-13.677511 14.114462-35.853579 0-49.526997L563.135634 512.002047 563.135634 512.002047zM563.135634 512.002047" p-id="13082"></path></svg>