<?xml version="1.0" standalone="no"?><!DOCTYPE svg PUBLIC "-//W3C//DTD SVG 1.1//EN" "http://www.w3.org/Graphics/SVG/1.1/DTD/svg11.dtd"><svg t="1528884265947" class="icon" style="" viewBox="0 0 1078 1024" version="1.1" xmlns="http://www.w3.org/2000/svg" p-id="38710" xmlns:xlink="http://www.w3.org/1999/xlink" width="210.546875" height="200"><defs><style type="text/css"></style></defs><path d="M1074.228764 385.752251a73.620133 73.620133 0 0 0-59.957832-50.149l-282.435071-40.717431-126.32913-253.870891A73.889606 73.889606 0 0 0 538.946801 0.001078a73.75487 73.75487 0 0 0-66.479088 41.013851l-126.302183 253.843944-282.408123 40.717431a73.64708 73.64708 0 0 0-59.930885 50.095105 72.757818 72.757818 0 0 0 18.863138 75.452552l204.368627 197.577897L178.60697 937.768512a72.973397 72.973397 0 0 0 29.453443 72.057187 74.401606 74.401606 0 0 0 78.147286 5.631994L538.946801 883.712148l252.604366 131.718598a74.212975 74.212975 0 0 0 78.147286-5.551152 73.000344 73.000344 0 0 0 29.642074-72.057187l-48.262686-279.039707 204.34168-197.55095a72.757818 72.757818 0 0 0 18.863138-75.452552z" fill="#00CB81" p-id="38711"></path></svg>