<?xml version="1.0" standalone="no"?><!DOCTYPE svg PUBLIC "-//W3C//DTD SVG 1.1//EN" "http://www.w3.org/Graphics/SVG/1.1/DTD/svg11.dtd"><svg t="1528710943849" class="icon" style="" viewBox="0 0 1024 1024" version="1.1" xmlns="http://www.w3.org/2000/svg" p-id="40835" xmlns:xlink="http://www.w3.org/1999/xlink" width="200" height="200"><defs><style type="text/css"></style></defs><path d="M576.780936 812.908365a183.364066 183.364066 0 0 1 22.967922-89.115392 10.223218 10.223218 0 0 0-8.904676-15.233678H355.233333c-16.147626 0-29.2319-11.530923-29.2319-25.749503s13.087886-25.756729 29.2319-25.756729h304.637437a10.183481 10.183481 0 0 0 5.310293-1.513614 184.151578 184.151578 0 0 1 205.99603 9.569365 10.21238 10.21238 0 0 0 16.24155-8.279722V199.760951A81.919402 81.919402 0 0 0 805.502853 117.837937H236.358625A81.919402 81.919402 0 0 0 154.431998 199.760951v661.756465a81.919402 81.919402 0 0 0 81.919402 81.923015h371.850577a10.237667 10.237667 0 0 0 7.97989-16.631694 183.512176 183.512176 0 0 1-39.404543-113.900372zM355.229721 352.719072h331.394812c16.144014 0 29.2319 11.530923 29.2319 25.753116s-13.087886 25.749504-29.2319 25.749504H355.233333c-16.147626 0-29.2319-11.530923-29.2319-25.749504s13.087886-25.753116 29.2319-25.753116z m0 152.166995h331.394812c16.144014 0 29.2319 11.534535 29.2319 25.756729s-13.087886 25.749504-29.2319 25.749504H355.233333c-16.147626 0-29.2319-11.534535-29.2319-25.753116s13.087886-25.753116 29.2319-25.753117z m-82.844188-253.70197a30.720227 30.720227 0 1 1 30.720227-30.720227 30.720227 30.720227 0 0 1-30.720227 30.720227z" p-id="40836"></path><path d="M761.105912 676.303779a136.600973 136.600973 0 1 0 136.59736 136.604586 136.600973 136.600973 0 0 0-136.600973-136.604586z m76.800568 160.085474h-53.323292v53.31968a23.480889 23.480889 0 0 1-46.961777 0v-53.31968h-53.31968a23.480889 23.480889 0 0 1 0-46.961777h53.31968v-53.31968a23.480889 23.480889 0 0 1 46.961777 0v53.31968h53.319679a23.480889 23.480889 0 0 1 0 46.961777z" p-id="40837"></path></svg>