<?xml version="1.0" standalone="no"?><!DOCTYPE svg PUBLIC "-//W3C//DTD SVG 1.1//EN" "http://www.w3.org/Graphics/SVG/1.1/DTD/svg11.dtd"><svg t="1528710650017" class="icon" style="" viewBox="0 0 1024 1024" version="1.1" xmlns="http://www.w3.org/2000/svg" p-id="33893" xmlns:xlink="http://www.w3.org/1999/xlink" width="200" height="200"><defs><style type="text/css"></style></defs><path d="M821.471917 161.080951h-93.537478v-39.707375c0-22.514491-18.318609-40.8331-40.8331-40.8331H336.796322c-22.514491 0-40.8331 18.318609-40.8331 40.8331v39.707375h-93.537477c-45.847691 0-83.098941 40.321407-83.098941 89.75095v602.876674c0 49.531881 37.251249 89.750949 83.098941 89.750949h618.943833c45.847691 0 83.201279-40.321407 83.201279-89.750949V250.831901c0.102339-49.531881-37.251249-89.750949-83.09894-89.75095z m-460.114332-15.146112h301.182491V229.238457H361.357585v-83.303618z m-66.213072 267.001399c0-8.084749 6.652009-14.736758 14.736758-14.736758H688.738757c8.084749 0 14.736758 6.652009 14.736758 14.736758v37.660604c0 8.084749-6.652009 14.736758-14.736758 14.736758H309.881271c-8.084749 0-14.736758-6.652009-14.736758-14.736758v-37.660604z m0 153.712573c0-7.573056 6.140316-13.713372 13.713372-13.713372h323.185289c7.573056 0 13.713372 6.140316 13.713372 13.713372v39.809714c0 7.573056-6.140316 13.713372-13.713372 13.713372H308.857885c-7.573056 0-13.713372-6.140316-13.713372-13.713372v-39.809714z m486.005997 192.294223c0 8.903458-7.26604 16.06716-16.06716 16.06716H311.314012c-8.903458 0-16.06716-7.26604-16.06716-16.06716v-34.9998c0-8.903458 7.26604-16.06716 16.06716-16.06716h453.769338c8.903458 0 16.06716 7.26604 16.06716 16.06716v34.9998z" p-id="33894"></path></svg>