<?xml version="1.0" standalone="no"?><!DOCTYPE svg PUBLIC "-//W3C//DTD SVG 1.1//EN" "http://www.w3.org/Graphics/SVG/1.1/DTD/svg11.dtd"><svg t="1528703081294" class="icon" style="" viewBox="0 0 1024 1024" version="1.1" xmlns="http://www.w3.org/2000/svg" p-id="3904" xmlns:xlink="http://www.w3.org/1999/xlink" width="200" height="200"><defs><style type="text/css"></style></defs><path d="M536.7552 494.9248H279.6288c-16.896 0-30.72 13.824-30.72 30.72v6.8352c0 16.896 13.824 30.72 30.72 30.72h257.1264c16.896 0 30.72-13.824 30.72-30.72v-6.8352c0-16.896-13.824-30.72-30.72-30.72M536.7552 711.1168H279.6288c-16.896 0-30.72 13.824-30.72 30.72v6.8352c0 16.896 13.824 30.72 30.72 30.72h257.1264c16.896 0 30.72-13.824 30.72-30.72v-6.8352c0-16.896-13.824-30.72-30.72-30.72" p-id="3905"></path><path d="M942.9248 650.8032c0 33.8688-27.5712 61.44-61.44 61.44h-86.4768v-154.7776c0.256-1.4848 0.4608-2.9696 0.4608-4.5056a30.72 30.72 0 1 0-61.44 0h-0.4608v348.16c0 33.8688-27.5456 61.44-61.44 61.44H144.2048a61.5168 61.5168 0 0 1-61.44-61.44V373.1968c0-33.8944 27.5712-61.44 61.44-61.44h527.9232c33.8944 0 61.44 27.5456 61.44 61.44V409.6h0.4608a30.72 30.72 0 1 0 61.44 0c0-1.536-0.2304-3.0464-0.4608-4.5312v-31.872c0-67.584-55.296-122.88-122.88-122.88H333.0816V122.88c0-33.8944 27.5456-61.44 61.44-61.44h486.9632c33.8688 0 61.44 27.5456 61.44 61.44v527.9232zM881.4848 0H394.5216c-67.584 0-122.88 55.296-122.88 122.88v127.4368H144.2048c-67.584 0-122.88 55.296-122.88 122.88V901.12c0 67.584 55.296 122.88 122.88 122.88h527.9232c67.584 0 122.88-55.296 122.88-122.88v-127.4368h86.4768c67.584 0 122.88-55.296 122.88-122.88V122.88c0-67.584-55.296-122.88-122.88-122.88z" p-id="3906"></path></svg>