<?xml version="1.0" standalone="no"?><!DOCTYPE svg PUBLIC "-//W3C//DTD SVG 1.1//EN" "http://www.w3.org/Graphics/SVG/1.1/DTD/svg11.dtd"><svg t="1528704551556" class="icon" style="" viewBox="0 0 1024 1024" version="1.1" xmlns="http://www.w3.org/2000/svg" p-id="6180" xmlns:xlink="http://www.w3.org/1999/xlink" width="200" height="200"><defs><style type="text/css"></style></defs><path d="M66.56 952.32V71.68c0-5.12 5.12-10.24 10.24-10.24H819.2c5.12 0 10.24 5.12 10.24 10.24v353.28h66.56V71.68c0-40.96-30.72-71.68-71.68-71.68H76.8C35.84 0 5.12 30.72 5.12 71.68v880.64c0 40.96 30.72 71.68 71.68 71.68h419.84v-66.56H76.8c-10.24 0-10.24 0-10.24-5.12z" p-id="6181"></path><path d="M256 563.2c-15.36 0-30.72 15.36-30.72 30.72s15.36 30.72 30.72 30.72h128c15.36 0 30.72-15.36 30.72-30.72s-15.36-30.72-30.72-30.72H256z m394.24-138.24c0-15.36-15.36-30.72-30.72-30.72H256c-15.36 0-30.72 15.36-30.72 30.72s15.36 30.72 30.72 30.72h363.52c20.48 0 30.72-15.36 30.72-30.72z m-30.72-199.68H256c-15.36 0-30.72 15.36-30.72 30.72s15.36 30.72 30.72 30.72h363.52c15.36 0 30.72-15.36 30.72-30.72 0-20.48-10.24-30.72-30.72-30.72zM870.4 680.96l-143.36 143.36-61.44-66.56c-10.24-10.24-25.6-10.24-35.84 0-10.24 10.24-10.24 25.6 0 35.84l97.28 97.28 174.08-179.2c10.24-10.24 10.24-25.6 0-35.84-5.12 0-20.48 0-30.72 5.12z" p-id="6182"></path><path d="M762.88 512c-138.24 0-250.88 112.64-250.88 250.88s112.64 250.88 250.88 250.88 250.88-112.64 250.88-250.88-112.64-250.88-250.88-250.88z m0 440.32c-102.4 0-189.44-81.92-189.44-189.44 0-102.4 81.92-189.44 189.44-189.44s189.44 81.92 189.44 189.44c0 102.4-87.04 189.44-189.44 189.44z" p-id="6183"></path></svg>