<?xml version="1.0" standalone="no"?><!DOCTYPE svg PUBLIC "-//W3C//DTD SVG 1.1//EN" "http://www.w3.org/Graphics/SVG/1.1/DTD/svg11.dtd"><svg t="1528883247087" class="icon" style="" viewBox="0 0 1024 1024" version="1.1" xmlns="http://www.w3.org/2000/svg" p-id="21591" xmlns:xlink="http://www.w3.org/1999/xlink" width="200" height="200"><defs><style type="text/css"></style></defs><path d="M512 0C229.143273 0 0 229.143273 0 512c0 282.624 229.376 512 512 512 282.856727 0 512-229.143273 512-512S794.763636 0 512 0z m313.949091 403.502545l-344.017455 326.702546a44.590545 44.590545 0 0 1-32.209454 14.708364h-0.512a43.938909 43.938909 0 0 1-31.976727-13.870546l-172.311273-181.853091a46.731636 46.731636 0 0 1 0.837818-64.977454 43.706182 43.706182 0 0 1 63.162182 0.837818l139.589818 147.269818 311.994182-291.607273a43.752727 43.752727 0 0 1 63.208727-2.141091c18.059636 17.221818 18.990545 46.359273 2.234182 64.930909z" fill="#21B928" p-id="21592"></path></svg>