<?xml version="1.0" standalone="no"?><!DOCTYPE svg PUBLIC "-//W3C//DTD SVG 1.1//EN" "http://www.w3.org/Graphics/SVG/1.1/DTD/svg11.dtd"><svg t="1532589663657" class="icon" style="" viewBox="0 0 1024 1024" version="1.1" xmlns="http://www.w3.org/2000/svg" p-id="1595" xmlns:xlink="http://www.w3.org/1999/xlink" width="200" height="200"><defs><style type="text/css"></style></defs><path d="M453.155307 59.04937l0 394.105936-394.003598 0c-32.441335 0-58.844693 26.301019-58.844693 58.844693 0 32.441335 26.301019 58.844693 58.844693 58.844693l394.003598 0 0 394.105936c0 32.441335 26.301019 58.844693 58.844693 58.844693 32.441335 0 58.844693-26.301019 58.844693-58.844693L570.844693 570.742355l394.003598 0c32.441335 0 58.844693-26.301019 58.844693-58.844693 0-32.441335-26.301019-58.844693-58.844693-58.844693l-394.003598 0L570.844693 59.04937c0-32.441335-26.301019-58.844693-58.844693-58.844693C479.558665 0.204677 453.155307 26.505697 453.155307 59.04937z" p-id="1596"></path></svg>