<?xml version="1.0" standalone="no"?><!DOCTYPE svg PUBLIC "-//W3C//DTD SVG 1.1//EN" "http://www.w3.org/Graphics/SVG/1.1/DTD/svg11.dtd"><svg t="1532422414921" class="icon" style="" viewBox="0 0 1024 1024" version="1.1" xmlns="http://www.w3.org/2000/svg" p-id="1624" xmlns:xlink="http://www.w3.org/1999/xlink" width="200" height="200"><defs><style type="text/css"></style></defs><path d="M1009.970984 885.444341V261.312494c0-75.792197-69.069075-68.666916-69.069075-68.666916s-412.456866 0.420579-390.389269 0c-23.5166 0.420579-35.512818-12.397355-35.512818-12.397354s-16.366759-28.335349-45.969984-72.863495c-30.880311-46.826492-66.795289-39.264259-66.795289-39.264259H98.572528c-84.210937 0-85.041862 81.055061-85.041862 81.055061v732.264613c0 90.312912 68.24736 79.21004 68.24736 79.210039h865.409029c73.091692-0.00921 62.783928-75.205842 62.783929-75.205842zM199.327256 740.511437c-32.882921 0-59.557444-26.638707-59.557444-59.548234 0-32.863479 26.674523-59.521628 59.557444-59.521628 32.891108 0 59.529815 26.65815 59.529815 59.521628 0 32.909527-26.638707 59.548234-59.529815 59.548234z m0-220.617653c-32.882921 0-59.557444-26.656103-59.557444-59.539025 0-32.891108 26.674523-59.557444 59.557444-59.557444 32.891108 0 59.529815 26.666336 59.529815 59.557444 0 32.881898-26.638707 59.539025-59.529815 59.539025z m584.516594 216.83142H406.430104c-30.828123 0-55.763025-24.916483-55.763024-55.762001 0-30.843472 24.934902-55.743582 55.763024-55.743582h377.413746c30.871101 0 55.779398 24.90011 55.779397 55.743582 0 30.846542-25.145703 55.762001-55.779397 55.762001z m0-220.644259H406.430104c-30.828123 0-55.763025-24.907273-55.763024-55.726186 0-30.829146 24.934902-55.753815 55.763024-55.753814h377.413746c30.871101 0 55.779398 24.924669 55.779397 55.753814 0 30.818913-25.145703 55.726186-55.779397 55.726186z" p-id="1625"></path></svg>