<?xml version="1.0" standalone="no"?><!DOCTYPE svg PUBLIC "-//W3C//DTD SVG 1.1//EN" "http://www.w3.org/Graphics/SVG/1.1/DTD/svg11.dtd"><svg t="1532686200405" class="icon" style="" viewBox="0 0 1026 1024" version="1.1" xmlns="http://www.w3.org/2000/svg" p-id="1184" xmlns:xlink="http://www.w3.org/1999/xlink" width="200.390625" height="200"><defs><style type="text/css"></style></defs><path d="M1023.959 913.608V140.86c0-60.892-51.041-110.397-113.782-110.397h-67.64V19.692C842.537 8.822 825.969 0 805.524 0c-20.459 0-37.027 8.822-37.027 19.692v10.772h-561.88V19.692C206.618 8.822 190.045 0 169.6 0c-20.439 0-37.012 8.822-37.012 19.692v10.772h-18.893C50.985 30.484 0 79.984 0 139.709v772.752C0 974.484 51.02 1024 113.777 1024h796.41c62.782 0 113.803-49.51 113.813-110.403h-0.041v0.01zM769.152 462.346L436.49 796.728 251.228 610.524c-19.927-19.978-19.927-50.027 0-70.067 19.886-20.03 49.787-20.03 69.694 0l113.556 116.147L699.453 392.29c19.892-20.08 49.803-20.08 69.689 0 19.937 19.989 19.937 50.084 0.01 70.057z m168.346-238.034H86.487V170.85h851.016v53.463z" fill="" p-id="1185"></path></svg>