<?xml version="1.0" standalone="no"?><!DOCTYPE svg PUBLIC "-//W3C//DTD SVG 1.1//EN" "http://www.w3.org/Graphics/SVG/1.1/DTD/svg11.dtd"><svg t="1528710129944" class="icon" style="" viewBox="0 0 1024 1024" version="1.1" xmlns="http://www.w3.org/2000/svg" p-id="30343" xmlns:xlink="http://www.w3.org/1999/xlink" width="200" height="200"><defs><style type="text/css"></style></defs><path d="M947.393 773.818h-12c-4.014 11.302-9.687 21.774-15.578 32.029l27.578 55.244-43.636 43.636-54.938-27.447c-10.342 6.022-20.902 11.782-32.334 15.84v11.607l-43.636 43.636h-43.636l-43.636-43.636v-12c-11.346-4.014-21.818-9.687-32.029-15.578l-55.244 27.578-43.636-43.636 27.447-54.938c-6.022-10.342-11.782-20.902-15.84-32.334h-11.607l-43.636-43.636v-43.636l43.636-43.636h11.607c4.102-11.433 9.818-21.993 15.84-32.334l-27.447-54.938 43.636-43.636 55.244 27.622c10.211-5.934 20.684-11.564 32.029-15.622v-12l43.636-43.636h43.636l43.636 43.636v12c11.302 4.014 21.774 9.687 32.029 15.578l55.244-27.578 43.636 43.636-27.447 54.938c6.022 10.342 11.782 20.902 15.84 32.334h11.607l43.636 43.636v43.636l-43.636 43.636zM751.030 642.909c-36.174 0-65.454 29.28-65.454 65.454s29.28 65.454 65.454 65.454c36.131 0 65.454-29.28 65.454-65.454s-29.324-65.454-65.454-65.454zM467.393 708.364c0 101.498 53.76 189.906 133.876 240h-439.331c-48.174 0-87.273-39.098-87.273-87.273v-698.182c0-48.174 39.098-87.273 87.273-87.273h392.727v174.546c0 48.174 39.098 87.273 87.273 87.273h174.546v95.607c-21.076-5.018-42.807-8.334-65.454-8.334-156.654 0-283.636 126.982-283.636 283.636zM205.575 730.182h218.182v-43.636h-218.182v43.636zM205.575 599.273h218.182v-43.636h-218.182v43.636zM423.757 293.818h-218.182v43.636h218.182v-43.636zM467.393 424.727h-261.818v43.636h261.818v-43.636zM598.302 206.546v-87.273l174.546 174.546h-87.273c-48.174 0-87.273-39.098-87.273-87.273z" p-id="30344"></path></svg>