<?xml version="1.0" standalone="no"?><!DOCTYPE svg PUBLIC "-//W3C//DTD SVG 1.1//EN" "http://www.w3.org/Graphics/SVG/1.1/DTD/svg11.dtd"><svg t="1532916339381" class="icon" style="" viewBox="0 0 1024 1024" version="1.1" xmlns="http://www.w3.org/2000/svg" p-id="15944" xmlns:xlink="http://www.w3.org/1999/xlink" width="200" height="200"><defs><style type="text/css"></style></defs><path d="M326.8 187.4L273 133.6c-89.9 68.5-149.3 174.9-155 295.3h75.2c5.7-99.7 56.8-186.9 133.6-241.5z m503.6 241.5h75.2c-5.6-120.4-65.1-226.8-155.3-295.3l-53.8 53.8c77.1 54.6 128.3 141.8 133.9 241.5z m-74.1 18.8c0-115.5-80.1-212.1-188.1-237.7v-25.6c0-31.2-25.2-56.4-56.4-56.4s-56.4 25.2-56.4 56.4V210c-107.9 25.6-188.1 122.2-188.1 237.7v206.9l-75.2 75.2v37.6h639.4v-37.6l-75.2-75.2V447.7zM511.8 880.2c5.3 0 10.2-0.4 15-1.5 24.4-4.9 44.8-21.8 54.2-44.4 3.8-9 6-18.8 6-29.3H436.6c0 41.4 33.9 75.2 75.2 75.2z" p-id="15945"></path></svg>