<?xml version="1.0" standalone="no"?><!DOCTYPE svg PUBLIC "-//W3C//DTD SVG 1.1//EN" "http://www.w3.org/Graphics/SVG/1.1/DTD/svg11.dtd"><svg t="1528705569289" class="icon" style="" viewBox="0 0 1024 1024" version="1.1" xmlns="http://www.w3.org/2000/svg" p-id="20769" xmlns:xlink="http://www.w3.org/1999/xlink" width="200" height="200"><defs><style type="text/css"></style></defs><path d="M247.34 291.45h392.09a24.51 24.51 0 0 0 0-49H247.34a24.51 24.51 0 1 0 0 49zM247.34 458.09h392.09a24.51 24.51 0 0 0 0-49H247.34a24.51 24.51 0 1 0 0 49zM247.34 614.92h122.53a24.51 24.51 0 1 0 0-49H247.34a24.51 24.51 0 1 0 0 49zM752.16 948.2c108.27 0 196-87.77 196-196s-87.77-196-196-196-196 87.77-196 196 87.72 196 196 196z m0 49c-135.34 0-245.06-109.72-245.06-245.06S616.81 507.1 752.16 507.1s245.05 109.71 245.05 245.05S887.5 997.21 752.16 997.21z" p-id="20770"></path><path d="M708 634.53v147a24.51 24.51 0 0 0 49 0v-147a24.51 24.51 0 1 0-49 0z" p-id="20771"></path><path d="M732.55 806.07h98a24.51 24.51 0 1 0 0-49h-98a24.51 24.51 0 0 0 0 49zM503.92 943.3H100.6a24.59 24.59 0 0 1-24.8-24.77v-818a24.55 24.55 0 0 1 24.55-24.73h686.07A24.33 24.33 0 0 1 811 100.29v314.33a24.51 24.51 0 0 0 49 0V100.29a73.34 73.34 0 0 0-73.56-73.5H100.35a73.56 73.56 0 0 0-73.56 73.78v818a73.6 73.6 0 0 0 73.81 73.78h403.32a24.51 24.51 0 1 0 0-49z" p-id="20772"></path></svg>