<?xml version="1.0" standalone="no"?><!DOCTYPE svg PUBLIC "-//W3C//DTD SVG 1.1//EN" "http://www.w3.org/Graphics/SVG/1.1/DTD/svg11.dtd"><svg t="1532935336643" class="icon" style="" viewBox="0 0 1638 1024" version="1.1" xmlns="http://www.w3.org/2000/svg" p-id="12413" xmlns:xlink="http://www.w3.org/1999/xlink" width="319.921875" height="200"><defs><style type="text/css"></style></defs><path d="M1626.5216 481.792C1347.4816 146.944 1056.6656-14.336 762.1632 2.3552c-106.2912 6.0416-212.3776 35.6352-315.392 88.064-81.3056 41.2672-160.768 96.768-236.3392 164.864C82.6368 370.5856 10.4448 481.6896 7.3728 486.4a44.2368 44.2368 0 0 0-7.168 25.9072c-0.3072 9.1136 2.1504 18.1248 7.168 26.0096 3.072 4.608 75.264 115.712 203.0592 231.1168a1099.9808 1099.9808 0 0 0 236.3392 164.864c103.0144 52.4288 209.1008 81.92 315.392 88.064 13.824 0.7168 27.648 1.1264 41.472 1.1264 280.3712 0 557.056-161.4848 822.8864-480.6656a44.544 44.544 0 0 0 10.4448-30.5152 44.544 44.544 0 0 0-10.4448-30.5152zM768.6144 929.5872C559.9232 917.8112 387.9936 800.4608 280.576 704a1259.3152 1259.3152 0 0 1-173.3632-191.6928c26.7264-36.864 86.8352-113.8688 173.3632-191.488C388.096 224.256 559.9232 106.7008 768.6144 95.0272c252.5184-14.1312 507.1872 126.1568 757.5552 417.1776-250.368 291.0208-505.1392 431.4112-757.5552 417.28z" p-id="12414"></path><path d="M819.2 819.2a307.2 307.2 0 1 0 0-614.4 307.2 307.2 0 0 0 0 614.4z m0 102.4a409.6 409.6 0 1 1 0-819.2 409.6 409.6 0 0 1 0 819.2z" p-id="12415"></path></svg>